<svg fill="none" viewBox="0 0 16 16" role="presentation" class="_1reo15vq _18m915vq _syaz1r31 _lcxvglyw _s7n4yfq0 _vc881r31 _1bsbpxbi _4t3ipxbi">
    <path fill="currentcolor" fill-rule="evenodd" d="M12 2.5a1 1 0 1 0 0 2 1 1 0 0 0 0-2m-2.5 1a2.5 2.5 0 1 1 .73 1.765L6.212 7.567a2.5 2.5 0 0 1 0 .866l4.016 2.302a2.5 2.5 0 1 1-.692 1.332L5.521 9.766a2.5 2.5 0 1 1 0-3.53l4.016-2.302A2.5 2.5 0 0 1 9.5 3.5M3.75 7a1 1 0 1 0 0 2 1 1 0 0 0 0-2M12 11.5a1 1 0 1 0 0 2 1 1 0 0 0 0-2" clip-rule="evenodd"></path>
</svg>