<svg fill="none" viewBox="0 0 16 16" role="presentation" class="_1reo15vq _18m915vq _syaz1r31 _lcxvglyw _s7n4yfq0 _vc881r31 _1bsbpxbi _4t3ipxbi">
    <path fill="currentcolor" fill-rule="evenodd" d="M5 1.5a2.5 2.5 0 1 0 0 5 2.5 2.5 0 0 0 0-5M1 4a4 4 0 1 1 8 0 4 4 0 0 1-8 0m11.25 4.75V11h1.5V8.75H16v-1.5h-2.25V5h-1.5v2.25H10v1.5zm-8.5 1.75a2.25 2.25 0 0 0-2.25 2.25V15H0v-2.25A3.75 3.75 0 0 1 3.75 9h2.5A3.75 3.75 0 0 1 10 12.75V15H8.5v-2.25a2.25 2.25 0 0 0-2.25-2.25z" clip-rule="evenodd"></path>
</svg>